<!-- Generated by IcoMoon.io -->
<svg version="1.1" xmlns="http://www.w3.org/2000/svg" width="512" height="512" viewBox="0 0 512 512">
<g id="icomoon-ignore">
</g>
<path fill="#000" d="M84.531 313.293c11.879 48.103 26.983 69.145 77.363 91.187 50.406 22.016 74.343 46.080 94.106 46.080 19.738 0 42.189-21.043 92.57-43.111 50.406-22.041 36.941-28.749 48.819-76.851l-141.389 68.762-171.469-86.067zM499.481 187.802l-213.12-119.347c-16.691-9.344-44.032-9.344-60.723 0l-213.145 119.347c-16.691 9.344-16.691 24.653 0 33.997l213.12 119.347c16.691 9.344 44.032 9.344 60.723 0l137.779-77.159-149.401-34.995c-5.76 1.408-12.083 2.202-18.714 2.202-26.931 0-48.743-12.953-48.743-28.953 0-16.051 21.837-29.005 48.743-29.005 20.889 0 38.656 7.859 45.568 18.791l158.259 51.942 39.654-22.195c16.665-9.319 16.665-24.627 0-33.971zM434.355 413.952c-1.664 9.856 32.845 26.061 36.121-2.739 14.822-129.843-10.649-167.194-10.649-167.194l-35.712 19.994c0-0.026 30.285 28.8 10.24 149.939z"></path>
</svg>
