<!-- Generated by IcoMoon.io -->
<svg version="1.1" xmlns="http://www.w3.org/2000/svg" width="512" height="512" viewBox="0 0 512 512">
<g id="icomoon-ignore">
</g>
<path fill="#000" d="M320 256q0-26-19-45t-45-19v-43q44 0 75.5 31.5t31.5 75.5h-43zM405 256q0-62-43.5-105.5t-105.5-43.5v-43q80 0 136 56t56 136h-43zM427 331q9 0 15 6t6 15v75q0 9-6 15t-15 6q-150 0-256.5-106.5t-106.5-256.5q0-9 6-15t15-6h75q9 0 15 6t6 15v1q0 41 12 75 2 4 2 7 0 10-7 15l-47 47q20 38 61.5 79.5t79.5 61.5l47-47q7-7 15-7 3 0 7 2 36 12 76 12z"></path>
</svg>
