<!-- Generated by IcoMoon.io -->
<svg version="1.1" xmlns="http://www.w3.org/2000/svg" width="512" height="512" viewBox="0 0 512 512">
<g id="icomoon-ignore">
</g>
<path fill="#000" d="M368 272h-208v55.897c0 13.358-10.745 24.103-24 24.103-13.347 0-24-10.791-24-24.103v-9.262c-2.502 0.885-5.195 1.365-8 1.365-13.347 0-24-10.757-24-24.027v-23.973h-32v-16h32v-23.973c0-13.288 10.745-24.027 24-24.027 2.811 0 5.502 0.477 8 1.355v0-9.251c0-13.358 10.745-24.103 24-24.103 13.347 0 24 10.791 24 24.103v55.897h208v-55.897c0-13.358 10.745-24.103 24-24.103 13.347 0 24 10.791 24 24.103v9.262c2.502-0.885 5.195-1.365 8-1.365 13.347 0 24 10.757 24 24.027v23.973h32v16h-32v23.973c0 13.288-10.745 24.027-24 24.027-2.811 0-5.502-0.477-8-1.354v9.252c0 13.358-10.745 24.103-24 24.103-13.347 0-24-10.791-24-24.103v-55.897z"></path>
</svg>
